<svg width="1496" height="1758" viewBox="0 0 1496 1758" fill="none" xmlns="http://www.w3.org/2000/svg">
<path d="M1007.66 1350.83C1007.22 1350.57 1011.81 1339.19 1016.55 1335.87C1023.95 1330.63 1071.16 1328.51 1079.55 1336.29C1082.2 1338.74 1069.51 1349.83 1069.51 1349.83C1086.26 1350.13 1146.34 1382.21 1152.4 1387.82C1156.19 1391.33 1147.55 1400.1 1141.26 1402.45C1141.26 1402.45 1199.77 1451.46 1197.7 1456.98C1197.25 1458.15 1007.66 1350.83 1007.66 1350.83Z" fill="#BDD9A3"/>
<path d="M970.695 1654.38C972.294 1652.05 973.685 1649.76 975.023 1647.39C976.361 1645.02 977.661 1642.65 978.88 1640.22C981.324 1635.37 983.559 1630.43 985.607 1625.4C989.693 1615.33 993.097 1604.99 995.796 1594.45C1001.19 1573.27 1004.09 1551.52 1004.44 1529.66C1004.56 1524.18 1004.49 1518.71 1004.28 1513.2C1004.07 1507.7 1003.76 1502.26 1003.26 1496.8C1002.33 1485.87 1000.83 1475 998.778 1464.23C996.737 1453.47 994.218 1442.74 991.303 1432.23C988.388 1421.72 985.226 1411.39 981.75 1401.07C978.274 1390.76 974.425 1380.55 970.298 1370.4C968.205 1365.35 966.045 1360.33 963.773 1355.35C961.5 1350.36 959.183 1345.4 956.709 1340.5C946.879 1320.86 935.555 1301.8 922.04 1283.97C915.238 1274.96 907.841 1266.41 899.899 1258.38C891.763 1250.12 882.846 1242.67 873.273 1236.14C870.836 1234.48 868.302 1232.94 865.798 1231.34C864.542 1230.52 863.234 1229.79 861.971 1228.97L858.076 1226.64C852.757 1223.42 847.173 1220.67 841.385 1218.41C835.369 1216.14 829.012 1214.91 822.585 1214.77C820.963 1214.77 819.341 1214.77 817.726 1214.91C816.911 1214.97 816.104 1215.06 815.297 1215.13C814.469 1215.2 813.657 1215.4 812.89 1215.72C811.067 1216.46 809.479 1217.69 808.293 1219.26C806.506 1221.58 805.232 1224.26 804.555 1227.11L805.594 1236.13C806.013 1237.03 806.401 1237.81 806.775 1238.47C806.962 1238.81 807.149 1239.22 807.328 1239.49L807.859 1240.39C808.554 1241.56 809.19 1242.44 809.803 1243.3C810.331 1244.01 810.919 1244.69 811.559 1245.31C812.051 1245.8 812.604 1246.22 813.204 1246.56C813.702 1246.84 814.239 1247.04 814.796 1247.15C815.319 1247.26 815.842 1247.39 816.366 1247.49C817.412 1247.71 818.451 1247.96 819.49 1248.16C823.624 1249.09 827.758 1249.8 832.071 1250.57C836.534 1251.3 840.937 1252.37 845.242 1253.75C849.713 1255.29 853.98 1257.36 857.949 1259.93C866.216 1265.14 873.945 1271.15 881.024 1277.88C888.322 1284.81 895.124 1292.25 901.379 1300.14C914.086 1316.04 925.06 1333.58 934.837 1351.87C939.726 1361.01 944.323 1370.34 948.628 1379.85C950.811 1384.59 952.897 1389.37 954.945 1394.18C956.993 1398.99 958.936 1403.85 960.857 1408.72C964.737 1418.45 968.28 1428.34 971.681 1438.28C975.082 1448.22 977.975 1458.11 980.479 1468.2C981.713 1473.25 982.864 1478.32 983.85 1483.42C984.837 1488.52 985.794 1493.64 986.571 1498.78C987.349 1503.93 987.999 1509.08 988.522 1514.27C989.046 1519.45 989.427 1524.63 989.696 1529.84C990.252 1540.26 990.232 1550.7 989.636 1561.12C989.063 1571.57 987.895 1581.99 986.138 1592.3C984.387 1602.67 981.983 1612.91 978.939 1622.97C977.444 1628 975.74 1632.98 973.827 1637.9C972.87 1640.35 971.89 1642.79 970.837 1645.2C969.783 1647.6 968.654 1650.02 967.458 1652.23L970.695 1654.38Z" fill="#BDD9A3"/>
<path d="M866.254 1369.63C866.747 1369.39 874.521 1381.89 874.812 1388.8C875.268 1399.61 849.696 1446.44 837.662 1448.96C833.857 1449.75 831.084 1429.68 831.084 1429.68C821.03 1445.55 756.528 1480.4 747.842 1482.23C742.408 1483.37 739.41 1468.84 740.92 1461.14C740.92 1461.14 661.782 1482.44 657.948 1476.52C657.111 1475.26 866.254 1369.63 866.254 1369.63Z" fill="#BDD9A3"/>
<path d="M559.128 593.778C559.233 592.828 524.1 603.247 508.448 620.646C464.622 669.356 438.788 733.175 441.345 752.159C442.159 758.143 467.014 729.719 467.014 729.719C433.922 817.235 426.888 880.561 455.958 916.914C460.025 902.552 464.128 899.71 476.141 883.62C476.141 883.62 503.948 909.583 480.147 997.615C521.761 1007.82 555.72 864.382 555.72 864.382C571.821 873.447 586.457 878.152 589.111 875.661C599.209 866.199 605.376 754.313 597.819 714.393C597.819 714.393 627.375 729.136 629.214 722.164C637.205 692.244 623.286 633.1 591.129 602.118C581.523 592.85 559.128 593.778 559.128 593.778Z" fill="#BDD9A3"/>
<path d="M491.001 592.903C491.793 593.119 503.006 576.349 502.961 567.732C502.841 554.268 459.195 500.285 440.171 499.118C434.154 498.744 431.35 524.109 431.35 524.109C414.322 506.052 291.777 457.185 281.91 476.409C305.561 490.419 298.191 494.002 287.636 499.739C287.636 499.739 160.24 491.706 150.171 548.21C209.934 525.979 246.434 553.348 246.434 553.348C230.348 561.015 219.352 571.973 223.261 575.983C229.428 582.311 329.638 603.778 371.184 604.818C371.184 604.818 339.221 623.787 344.274 626.046C366.086 635.77 439.207 623.054 462.551 615.305C474.167 611.468 491.001 592.903 491.001 592.903Z" fill="#BDD9A3"/>
<path d="M410.981 700.697C411.654 699.949 375.228 687.584 351.286 693.015C284.235 708.207 223.463 747.245 214.172 765.07C211.227 770.702 249.753 761.375 249.753 761.375C170.047 824.678 135.116 890.248 131.297 904.243C128.456 914.67 144.378 905.342 164.396 898.79C164.396 898.79 133.263 951.509 124.846 1024.56C123.351 1037.8 244.251 930.535 244.251 930.535C252.564 948.06 262.266 960.964 266.041 960.455C280.423 958.465 353.439 866.297 371.125 827.498C371.125 827.498 387.57 858.046 393.348 853.199C418.314 832.397 442.182 773.275 433.376 727.221C430.745 713.48 410.981 700.697 410.981 700.697Z" fill="#BDD9A3"/>
<path d="M1253.48 52.8458C1140.56 47.6098 1062.08 49.4124 1039.76 48.5223C1017.45 47.6322 1003.14 61.56 990.817 97.9427C1002.82 101.032 997.485 55.561 1043.22 54.7756C1066.31 56.3314 1213.59 52.3596 1253.48 52.8458Z" fill="#BDD9A3"/>
<path d="M1122.74 155.958C1121.95 155.733 1119.1 137.706 1122.74 131.274C1128.48 121.221 1189.46 102.057 1206.7 110.472C1212.16 113.127 1204.02 133.503 1204.02 133.503C1226.5 128.267 1354.77 151.35 1355.42 170.581C1328.75 169.556 1333.74 175.817 1340.63 185.272C1340.63 185.272 1456.1 241.372 1441.33 288.615C1398.03 242.823 1354.47 245.538 1354.47 245.538C1365.42 259.129 1370.51 272.698 1365.4 273.805C1357.34 275.54 1260.17 242.778 1223.18 223.3C1223.18 223.3 1243.36 253.1 1237.96 252.315C1214.71 248.942 1155.66 203.777 1138.36 186.603C1129.8 178.091 1122.74 155.958 1122.74 155.958Z" fill="#BDD9A3"/>
<path d="M1439.37 276.812C1415.64 221.947 1223.67 190.74 1115 148.598C1206.16 175.585 1412.03 209.26 1439.37 276.812Z" fill="#BDD9A3"/>
<path d="M1154.95 337.176C1155.17 334.356 1155.21 331.693 1155.21 328.948C1155.21 326.202 1155.14 323.517 1154.99 320.809C1154.7 315.394 1154.18 309.986 1153.5 304.608C1152.02 293.831 1149.82 283.165 1146.92 272.683C1141.04 251.625 1132.73 231.327 1122.15 212.2C1119.52 207.398 1116.73 202.685 1113.83 198.048C1110.92 193.41 1107.92 188.817 1104.78 184.329C1098.53 175.321 1091.82 166.64 1084.67 158.321C1077.54 150.011 1070.02 141.97 1062.25 134.318C1054.47 126.666 1046.6 119.276 1038.45 112.065C1030.3 104.854 1021.88 97.9279 1013.27 91.2108C1008.94 87.8847 1004.56 84.6209 1000.12 81.4195C995.683 78.2181 991.146 75.0839 986.601 72.062C968.302 59.9444 948.994 49.061 928.393 40.3319C917.99 35.9008 907.302 32.1724 896.4 29.1717C885.236 26.075 873.798 24.0709 862.247 23.1877C859.309 22.9633 856.342 22.8885 853.367 22.7614C851.872 22.6791 850.377 22.694 848.882 22.6118L844.344 22.5295C838.129 22.3852 831.912 22.7706 825.762 23.6814C819.409 24.7155 813.279 26.8252 807.635 29.9197C806.222 30.7126 804.832 31.5504 803.486 32.4554C802.813 32.9117 802.156 33.3904 801.498 33.8617C800.811 34.3319 800.203 34.9075 799.696 35.5671C798.484 37.1226 797.71 38.9744 797.454 40.9303C797.049 43.8383 797.271 46.7993 798.104 49.6146L803.493 56.915C804.301 57.4835 805.026 57.9622 805.684 58.3512C806.013 58.5532 806.364 58.785 806.67 58.9646L807.575 59.4807C808.756 60.1464 809.75 60.5952 810.714 61.029C811.529 61.3874 812.371 61.6776 813.233 61.8967C813.905 62.0729 814.595 62.1634 815.289 62.166C815.856 62.1562 816.418 62.0604 816.956 61.8818C817.464 61.7172 817.988 61.5676 818.488 61.3881C819.505 61.0664 820.529 60.7597 821.531 60.4157C825.575 59.159 829.514 57.7229 833.64 56.2418C837.871 54.6448 842.216 53.3695 846.639 52.427C851.272 51.5359 855.996 51.2143 860.707 51.4696C870.468 51.8625 880.166 53.2256 889.658 55.5387C899.436 57.91 909.035 60.9669 918.384 64.6868C937.296 72.1667 955.572 81.8907 973.146 92.8564C981.942 98.3418 990.573 104.139 999.04 110.247C1003.29 113.239 1007.49 116.381 1011.65 119.523C1015.81 122.664 1019.92 125.918 1024.02 129.179C1032.24 135.687 1040.22 142.486 1048.12 149.375C1056.02 156.264 1063.44 163.43 1070.65 170.933C1074.22 174.673 1077.75 178.517 1081.11 182.452C1084.48 186.386 1087.84 190.343 1091.12 194.42C1094.39 198.496 1097.49 202.648 1100.52 206.874C1103.55 211.1 1106.5 215.416 1109.29 219.792C1114.96 228.55 1120.14 237.615 1124.81 246.944C1129.52 256.293 1133.69 265.903 1137.3 275.727C1140.96 285.592 1144 295.681 1146.38 305.932C1147.58 311.058 1148.57 316.224 1149.37 321.43C1149.77 324.033 1150.12 326.666 1150.41 329.254C1150.7 331.842 1150.91 334.49 1150.98 337.041L1154.95 337.176Z" fill="#BDD9A3"/>
<path d="M1148.35 295.647C1148.21 294.862 1178.66 306.217 1192.75 321.61C1232.23 364.725 1256.96 418.589 1255.54 433.766C1255.1 438.56 1232.68 413.442 1232.68 413.442C1259.83 491.167 1255.19 547.334 1251.7 557.522C1249.1 565.069 1242.22 551.486 1231.33 537.438C1231.33 537.438 1229.7 584.181 1203.56 631.23C1198.82 639.757 1162.53 515.29 1162.53 515.29C1149.16 521.274 1136.85 523.907 1134.48 521.671C1125.46 513.166 1115.52 421.962 1120.32 390.224C1120.32 390.224 1095.65 399.732 1093.8 393.964C1085.73 369.049 1095.15 322.261 1121.34 299.806C1129.16 293.037 1148.35 295.647 1148.35 295.647Z" fill="#BDD9A3"/>
<path d="M1202.62 616.697C1200.3 470.305 1200.38 387.06 1154.39 301.093C1192.2 392.498 1197.34 483.837 1202.62 616.697Z" fill="#BDD9A3"/>
<path d="M1031.76 129.194C1031.82 128.566 1056.6 141.424 1065.69 155.314C1091.15 194.21 1100.82 239.584 1095.98 251.275C1094.49 254.97 1080.15 232.388 1080.15 232.388C1091.64 294.195 1087.25 335.964 1059.89 354.095C1059.03 344.192 1056.39 341.656 1049.86 329.239C1049.86 329.239 1025.03 340.953 1029.46 401.466C996.67 400.658 993.075 302.94 993.075 302.94C979.62 305.932 967.914 306.335 966.299 304.279C960.17 296.439 972.601 223.771 984.359 199.559C984.359 199.559 959.938 203.785 959.602 198.998C958.167 178.442 977.631 143.062 1006.48 128.902C1015.1 124.654 1031.76 129.194 1031.76 129.194Z" fill="#BDD9A3"/>
<path d="M1026.85 400.067C1005.09 310.165 1057.2 207.54 1035.93 134.243C1048.57 210.711 995.227 320.203 1026.85 400.067Z" fill="#BDD9A3"/>
<path d="M922.615 142.351C922.921 141.895 935.883 148.859 939.576 154.701C945.354 163.849 946.505 217.204 937.333 225.387C934.433 227.975 922.032 211.923 922.032 211.923C921.217 230.698 882.646 293.073 876.023 298.983C871.875 302.685 862.045 291.585 859.518 284.15C859.518 284.15 801.505 342.067 795.233 338.858C793.866 338.208 922.615 142.351 922.615 142.351Z" fill="#BDD9A3"/>
<path d="M800.773 329.868C956.462 83.6268 982.281 83.552 967.099 78.9219C925.441 129.831 840.443 259.856 800.773 329.868Z" fill="#BDD9A3"/>
<path d="M1154.95 337.176C1155.17 334.356 1155.21 331.693 1155.21 328.948C1155.21 326.202 1155.14 323.517 1154.99 320.809C1154.7 315.394 1154.18 309.986 1153.5 304.608C1152.02 293.831 1149.82 283.165 1146.92 272.683C1141.04 251.625 1132.73 231.327 1122.15 212.2C1119.52 207.398 1116.73 202.685 1113.83 198.048C1110.92 193.41 1107.92 188.817 1104.78 184.329C1098.53 175.321 1091.82 166.64 1084.67 158.321C1077.54 150.011 1070.02 141.97 1062.25 134.318C1054.47 126.666 1046.6 119.276 1038.45 112.065C1030.3 104.854 1021.88 97.9279 1013.27 91.2108C1008.94 87.8847 1004.56 84.6209 1000.12 81.4195C995.683 78.2181 991.146 75.0839 986.601 72.062C968.302 59.9444 948.994 49.061 928.393 40.3319C917.99 35.9008 907.302 32.1724 896.4 29.1717C885.236 26.075 873.798 24.0709 862.247 23.1877C859.309 22.9633 856.342 22.8885 853.367 22.7614C851.872 22.6791 850.377 22.694 848.882 22.6118L844.344 22.5295C838.129 22.3852 831.912 22.7706 825.762 23.6814C819.409 24.7155 813.279 26.8252 807.635 29.9197C806.222 30.7126 804.832 31.5504 803.486 32.4554C802.813 32.9117 802.156 33.3904 801.498 33.8617C800.811 34.3319 800.203 34.9075 799.696 35.5671C798.484 37.1226 797.71 38.9744 797.454 40.9303C797.049 43.8383 797.271 46.7993 798.104 49.6146L803.493 56.915C804.301 57.4835 805.026 57.9622 805.684 58.3512C806.013 58.5532 806.364 58.785 806.67 58.9646L807.575 59.4807C808.756 60.1464 809.75 60.5952 810.714 61.029C811.529 61.3874 812.371 61.6776 813.233 61.8967C813.905 62.0729 814.595 62.1634 815.289 62.166C815.856 62.1562 816.418 62.0604 816.956 61.8818C817.464 61.7172 817.988 61.5676 818.488 61.3881C819.505 61.0664 820.529 60.7597 821.531 60.4157C825.575 59.159 829.514 57.7229 833.64 56.2418C837.871 54.6448 842.216 53.3695 846.639 52.427C851.272 51.5359 855.996 51.2143 860.707 51.4696C870.468 51.8625 880.166 53.2256 889.658 55.5387C899.436 57.91 909.035 60.9669 918.384 64.6868C937.296 72.1667 955.572 81.8907 973.146 92.8564C981.942 98.3418 990.573 104.139 999.04 110.247C1003.29 113.239 1007.49 116.381 1011.65 119.523C1015.81 122.664 1019.92 125.918 1024.02 129.179C1032.24 135.687 1040.22 142.486 1048.12 149.375C1056.02 156.264 1063.44 163.43 1070.65 170.933C1074.22 174.673 1077.75 178.517 1081.11 182.452C1084.48 186.386 1087.84 190.343 1091.12 194.42C1094.39 198.496 1097.49 202.648 1100.52 206.874C1103.55 211.1 1106.5 215.416 1109.29 219.792C1114.96 228.55 1120.14 237.615 1124.81 246.944C1129.52 256.293 1133.69 265.903 1137.3 275.727C1140.96 285.592 1144 295.681 1146.38 305.932C1147.58 311.058 1148.57 316.224 1149.37 321.43C1149.77 324.033 1150.12 326.666 1150.41 329.254C1150.7 331.842 1150.91 334.49 1150.98 337.041L1154.95 337.176Z" fill="url(#paint0_linear)"/>
<path d="M1032.15 122.014C1034.4 122.171 1036.68 122.358 1038.94 122.575C1041.2 122.792 1043.47 123.053 1045.73 123.323C1050.21 123.854 1054.76 124.512 1059.27 125.178L1065.99 126.24L1072.72 127.384C1077.21 128.207 1081.67 129.072 1086.12 129.98C1088.36 130.436 1090.6 130.825 1092.84 131.184C1095.09 131.543 1097.42 131.865 1099.68 132.276C1101.94 132.669 1104.17 133.183 1106.37 133.817C1108.53 134.475 1110.65 135.259 1112.73 136.166C1114.8 137.078 1116.84 138.081 1118.82 139.158C1120.8 140.235 1122.77 141.402 1124.66 142.681C1126.56 143.969 1128.39 145.371 1130.13 146.877C1131 147.625 1131.83 148.433 1132.62 149.278C1133.42 150.117 1134.13 151.028 1134.76 152.001L1133.57 153.407C1128.7 153.833 1123.8 153.906 1118.92 153.624C1116.59 153.504 1114.35 153.28 1112.13 153.003C1109.91 152.727 1107.7 152.375 1105.54 151.964C1101.26 151.165 1097.09 149.86 1093.11 148.074C1089.15 146.324 1085.23 144.386 1081.15 142.838L1068.87 138.148L1056.59 133.331L1044.26 128.491C1040.14 126.868 1036.04 125.297 1031.81 123.674L1032.15 122.014Z" fill="#BDD9A3"/>
<path d="M1035.86 55.5541C1035.35 55.5541 1033.66 43.3916 1036.12 38.1481C1039.94 29.9201 1079.8 4.54045 1090.94 7.10609C1094.47 7.91393 1088.99 23.8613 1088.99 23.8613C1103.67 15.7679 1171.73 13.6212 1179.78 15.4687C1184.82 16.6207 1181.68 28.5288 1177.4 33.6975C1177.4 33.6975 1252.61 47.0269 1253.48 52.8463C1254.4 59.0248 1185.84 73.4761 1185.84 73.4761C1192.84 80.9561 1196.03 89.4983 1192.69 91.271C1187.46 94.0686 1124.51 89.9321 1100.62 83.4245C1100.62 83.4245 1113.48 100.486 1109.96 100.988C1094.86 103.149 1056.89 82.8336 1045.77 74.1045C1040.26 69.7735 1035.86 55.5541 1035.86 55.5541Z" fill="#BDD9A3"/>
<path d="M615.041 539.614C615.482 539.899 622.837 528.462 623.264 521.73C623.914 511.205 601.586 462.81 590.702 459.129C587.249 457.963 584.281 477.313 584.281 477.313C575.468 460.775 517.417 420.159 509.531 417.473C504.605 415.805 501.556 429.711 502.804 437.4C502.804 437.4 431.044 408.512 427.486 413.958C423.696 419.732 476.208 473.177 476.208 473.177C466.528 476.812 459.613 483.754 461.647 487.441C464.861 493.268 521.447 524.579 545.367 531.431C545.367 531.431 525.932 541.567 528.742 544.065C540.799 554.791 583.624 555.539 597.512 552.906C604.344 551.627 615.041 539.614 615.041 539.614Z" fill="#BDD9A3"/>
<path d="M615.041 539.614C615.482 539.899 622.838 528.462 623.264 521.73C623.914 511.205 601.586 462.81 590.703 459.13C587.249 457.963 584.282 477.313 584.282 477.313C575.469 460.775 517.418 420.159 509.532 417.473C504.606 415.805 501.556 429.711 502.804 437.4C502.804 437.4 431.126 408.557 427.486 413.958C426.679 415.14 615.041 539.614 615.041 539.614Z" fill="#BDD9A3"/>
<path d="M427.449 413.98C527.988 472.407 595.263 518.551 615.057 530.25C634.851 541.948 640.539 564.216 633.61 608.258C621.695 604.631 648.35 561.299 609.032 534.67C588.229 523.211 462.32 435.987 427.449 413.98Z" fill="#BDD9A3"/>
<path d="M287.748 553.071C334.923 510.547 516.677 587.12 631.411 605.536C539.2 581.562 344.199 499.664 287.748 553.071Z" fill="#BDD9A3"/>
<path d="M396.039 738.037C398.356 731.911 400.965 726.069 403.723 720.16C406.482 714.251 409.427 708.536 412.529 702.844C418.731 691.414 425.631 680.377 433.19 669.797C440.805 659.132 449.198 649.044 458.298 639.615C467.497 630.051 477.606 621.408 488.482 613.809C499.551 606.093 511.536 599.784 524.161 595.027C536.983 590.225 550.419 587.256 564.07 586.208C570.915 585.692 577.788 585.64 584.641 586.051C591.368 586.462 597.961 587.136 604.606 588.071C617.929 589.944 631.075 592.914 643.91 596.949C656.828 601.034 669.37 606.225 681.397 612.463C693.479 618.742 704.985 626.073 715.782 634.372C726.593 642.699 736.674 651.936 745.914 661.981C750.533 667 754.966 672.191 759.16 677.576C763.353 682.962 767.315 688.52 771.067 694.212C778.568 705.593 785.221 717.511 790.973 729.869C793.858 736.033 796.542 742.286 799.143 748.569C801.745 754.852 804.249 761.195 806.491 767.628C808.734 774.061 810.827 780.561 812.531 787.158C814.217 793.747 815.535 800.424 816.478 807.16C817.364 813.888 817.863 820.661 817.973 827.446C817.973 829.144 817.973 830.834 817.973 832.525C818.001 834.301 817.633 836.062 816.896 837.678C816.014 839.642 814.766 841.419 813.219 842.914C812.815 843.356 812.284 843.804 811.821 844.246C811.357 844.687 810.767 845.136 810.147 845.585C808.775 846.596 807.325 847.496 805.811 848.277L796.841 848.741C795.252 848.142 793.706 847.435 792.214 846.624C791.541 846.273 790.996 845.876 790.398 845.562C789.8 845.248 789.306 844.814 788.85 844.493C787.167 843.302 785.692 841.841 784.485 840.169C783.546 838.844 782.906 837.331 782.609 835.733C782.295 834.237 781.973 832.741 781.689 831.245C780.423 825.261 779.227 819.307 778.101 813.383C775.769 801.527 773.811 789.649 771.224 777.846C768.723 766.03 765.139 754.469 760.52 743.311C755.931 732.173 750.527 721.39 744.352 711.049C741.272 705.888 737.995 700.852 734.522 695.94C731.039 691.048 727.391 686.276 723.534 681.668C700.305 653.677 670.21 632.201 636.196 619.345C624.78 615.034 613.03 611.67 601.063 609.284C595.083 608.095 588.969 607.13 582.884 606.367C576.96 605.645 570.994 605.323 565.026 605.402C553.022 605.599 541.104 607.485 529.625 611.004C517.97 614.61 506.809 619.653 496.398 626.017C485.797 632.471 475.838 639.925 466.655 648.277C457.348 656.73 448.678 665.861 440.717 675.594C432.674 685.391 425.209 695.648 418.359 706.315C414.921 711.66 411.637 717.108 408.507 722.658C405.398 728.193 402.385 733.878 399.747 739.563L396.039 738.037Z" fill="#BDD9A3"/>
<path d="M396.039 738.037C398.356 731.911 400.965 726.069 403.723 720.16C406.482 714.251 409.427 708.536 412.529 702.844C418.731 691.414 425.631 680.377 433.19 669.797C440.805 659.132 449.198 649.044 458.298 639.615C467.497 630.051 477.606 621.408 488.482 613.809C499.551 606.093 511.536 599.784 524.161 595.027C536.983 590.225 550.419 587.256 564.07 586.208C570.915 585.692 577.788 585.64 584.641 586.051C591.368 586.462 597.961 587.136 604.606 588.071C617.929 589.944 631.075 592.914 643.91 596.949C656.828 601.034 669.37 606.225 681.397 612.463C693.479 618.742 704.985 626.073 715.782 634.372C726.593 642.699 736.674 651.936 745.914 661.981C750.533 667 754.966 672.191 759.16 677.576C763.353 682.962 767.315 688.52 771.067 694.212C778.568 705.593 785.221 717.511 790.973 729.869C793.858 736.033 796.542 742.286 799.143 748.569C801.745 754.852 804.249 761.195 806.491 767.628C808.734 774.061 810.827 780.561 812.531 787.158C814.217 793.747 815.535 800.424 816.478 807.16C817.364 813.888 817.863 820.661 817.973 827.446C817.973 829.144 817.973 830.834 817.973 832.525C818.001 834.301 817.633 836.062 816.896 837.678C816.014 839.642 814.766 841.419 813.219 842.914C812.815 843.356 812.284 843.804 811.821 844.246C811.357 844.687 810.767 845.136 810.147 845.585C808.775 846.596 807.325 847.496 805.811 848.277L796.841 848.741C795.252 848.142 793.706 847.435 792.214 846.624C791.541 846.273 790.996 845.876 790.398 845.562C789.8 845.248 789.306 844.814 788.85 844.493C787.167 843.302 785.692 841.841 784.485 840.169C783.546 838.844 782.906 837.331 782.609 835.733C782.295 834.237 781.973 832.741 781.689 831.245C780.423 825.261 779.227 819.307 778.101 813.383C775.769 801.527 773.811 789.649 771.224 777.846C768.723 766.03 765.139 754.469 760.52 743.311C755.931 732.173 750.527 721.39 744.352 711.049C741.272 705.888 737.995 700.852 734.522 695.94C731.039 691.048 727.391 686.276 723.534 681.668C700.305 653.677 670.21 632.201 636.196 619.345C624.78 615.034 613.03 611.67 601.063 609.284C595.083 608.095 588.969 607.13 582.884 606.367C576.96 605.645 570.994 605.323 565.026 605.402C553.022 605.599 541.104 607.485 529.625 611.004C517.97 614.61 506.809 619.653 496.398 626.017C485.797 632.471 475.838 639.925 466.655 648.277C457.348 656.73 448.678 665.861 440.717 675.594C432.674 685.391 425.209 695.648 418.359 706.315C414.921 711.66 411.637 717.108 408.507 722.658C405.398 728.193 402.385 733.878 399.747 739.563L396.039 738.037Z" fill="#BDD9A3"/>
<path d="M135.894 1009.37C240.349 850.334 298.422 758.786 401.525 701.751C302.28 771.397 233.659 867.613 135.894 1009.37Z" fill="#BDD9A3"/>
<path d="M483.833 996.426C538.333 870.919 503.455 700.899 552.341 599.807C513.389 708.603 547.767 889.215 483.833 996.426Z" fill="#BDD9A3"/>
<path d="M396.039 738.037C398.356 731.911 400.965 726.069 403.723 720.16C406.482 714.251 409.427 708.536 412.529 702.844C418.731 691.414 425.631 680.377 433.19 669.797C440.805 659.132 449.198 649.044 458.298 639.615C467.497 630.051 477.606 621.408 488.482 613.809C499.551 606.093 511.536 599.784 524.161 595.027C536.983 590.225 550.419 587.256 564.07 586.208C570.915 585.692 577.788 585.64 584.641 586.051C591.368 586.462 597.961 587.136 604.606 588.071C617.929 589.944 631.075 592.914 643.91 596.949C656.828 601.034 669.37 606.225 681.397 612.463C693.479 618.742 704.985 626.073 715.782 634.372C726.593 642.699 736.674 651.936 745.914 661.981C750.533 667 754.966 672.191 759.16 677.576C763.353 682.962 767.315 688.52 771.067 694.212C778.568 705.593 785.221 717.511 790.973 729.869C793.858 736.033 796.542 742.286 799.143 748.569C801.745 754.852 804.249 761.195 806.491 767.628C808.734 774.061 810.827 780.561 812.531 787.158C814.217 793.747 815.535 800.424 816.478 807.16C817.364 813.888 817.863 820.661 817.973 827.446C817.973 829.144 817.973 830.834 817.973 832.525C818.001 834.301 817.633 836.062 816.896 837.678C816.014 839.642 814.766 841.419 813.219 842.914C812.815 843.356 812.284 843.804 811.821 844.246C811.357 844.687 810.767 845.136 810.147 845.585C808.775 846.596 807.325 847.496 805.811 848.277L796.841 848.741C795.252 848.142 793.706 847.435 792.214 846.624C791.541 846.273 790.996 845.876 790.398 845.562C789.8 845.248 789.306 844.814 788.85 844.493C787.167 843.302 785.692 841.841 784.485 840.169C783.546 838.844 782.906 837.331 782.609 835.733C782.295 834.237 781.973 832.741 781.689 831.245C780.423 825.261 779.227 819.307 778.101 813.383C775.769 801.527 773.811 789.649 771.224 777.846C768.723 766.03 765.139 754.469 760.52 743.311C755.931 732.173 750.527 721.39 744.352 711.049C741.272 705.888 737.995 700.852 734.522 695.94C731.039 691.048 727.391 686.276 723.534 681.668C700.305 653.677 670.21 632.201 636.196 619.345C624.78 615.034 613.03 611.67 601.063 609.284C595.083 608.095 588.969 607.13 582.884 606.367C576.96 605.645 570.994 605.323 565.026 605.402C553.022 605.599 541.104 607.485 529.625 611.004C517.97 614.61 506.809 619.653 496.398 626.017C485.797 632.471 475.838 639.925 466.655 648.277C457.348 656.73 448.678 665.861 440.717 675.594C432.674 685.391 425.209 695.648 418.359 706.315C414.921 711.66 411.637 717.108 408.507 722.658C405.398 728.193 402.385 733.878 399.747 739.563L396.039 738.037Z" fill="url(#paint1_linear)"/>
<path d="M922.615 142.352C922.922 141.896 935.883 148.86 939.576 154.701C945.354 163.85 946.505 217.204 937.334 225.387C934.433 227.976 922.032 211.923 922.032 211.923C921.217 230.698 882.646 293.074 876.024 298.983C871.875 302.686 862.045 291.585 859.519 284.15C859.519 284.15 801.461 342.143 795.234 338.859C788.611 335.373 815.416 263.977 815.416 263.977C803.92 265.054 793.582 261.927 793.836 257.716C794.225 251.051 835.905 197.652 856.581 180.822C856.581 180.822 832.116 180.433 833.723 176.94C840.622 161.92 883.312 142.09 898.523 138.245C906.013 136.368 922.615 142.352 922.615 142.352Z" fill="#BDD9A3"/>
<path d="M1007.66 1350.83C1007.22 1350.57 1011.81 1339.19 1016.55 1335.87C1023.95 1330.63 1071.16 1328.51 1079.55 1336.29C1082.2 1338.74 1069.51 1349.83 1069.51 1349.83C1086.26 1350.13 1146.34 1382.21 1152.4 1387.82C1156.19 1391.33 1147.55 1400.1 1141.26 1402.45C1141.26 1402.45 1199.84 1451.5 1197.7 1456.98C1195.45 1462.8 1128.78 1441.14 1128.78 1441.14C1131.14 1451.09 1129.64 1460.11 1125.86 1459.98C1119.88 1459.79 1067.41 1424.83 1049.93 1407.28C1049.93 1407.28 1052.59 1428.49 1049.29 1427.17C1035.08 1421.51 1012.29 1384.95 1007.01 1371.82C1004.39 1365.35 1007.66 1350.83 1007.66 1350.83Z" fill="#BDD9A3"/>
<path d="M1197.7 1456.98C1102.4 1396.14 1033.45 1358.58 1014.56 1346.68C995.661 1334.78 976.308 1339.73 947.514 1365.13C956.387 1373.79 974.424 1331.71 1014.45 1353.83C1033.68 1366.69 1163.36 1436.65 1197.7 1456.98Z" fill="#BDD9A3"/>
<path d="M1032.99 1481.2C1032.42 1480.61 1038.93 1463.56 1045.31 1459.81C1055.29 1453.96 1117.71 1467.75 1128.47 1483.64C1131.88 1488.67 1114.68 1502.28 1114.68 1502.28C1136.79 1508.92 1236.52 1592.9 1227.48 1609.91C1204.88 1595.69 1206.07 1603.64 1207.35 1615.27C1207.35 1615.27 1279.54 1721.48 1243.23 1755.08C1228.48 1693.79 1189.35 1674.42 1189.35 1674.42C1192.08 1691.62 1189.74 1705.97 1184.77 1704.34C1176.91 1701.83 1108.97 1624.98 1086.59 1589.65C1086.59 1589.65 1089.27 1625.55 1084.96 1622.17C1066.48 1607.65 1037.78 1539.06 1031.32 1515.55C1028.1 1503.91 1032.99 1481.2 1032.99 1481.2Z" fill="#BDD9A3"/>
<path d="M1183.06 1672.53C1189.79 1613.12 1038.9 1490.35 965.656 1399.64C1031.26 1468.47 1192.99 1600.29 1183.06 1672.53Z" fill="#BDD9A3"/>
<path d="M967.435 1412.64C967.802 1412.13 982.886 1435.62 983.88 1452.2C986.594 1498.57 972.369 1542.77 962.375 1550.51C959.213 1552.95 958.047 1526.23 958.047 1526.23C937.229 1585.56 912.636 1619.58 879.888 1621.66C884.074 1612.64 883.035 1609.14 883.558 1595.11C883.558 1595.11 856.207 1592.87 829.918 1647.57C801.894 1630.52 847.439 1543.97 847.439 1543.97C834.291 1539.83 823.93 1534.37 823.519 1531.78C822.099 1521.93 869.064 1465.12 891.317 1449.99C891.317 1449.99 868.033 1441.48 870.126 1437.16C879.096 1418.62 913.608 1397.65 945.676 1399.76C955.251 1400.39 967.435 1412.64 967.435 1412.64Z" fill="#BDD9A3"/>
<path d="M828.318 1645.05C854.211 1556.25 950.489 1493.25 968.542 1419.1C941.43 1491.7 840.659 1560.04 828.318 1645.05Z" fill="#BDD9A3"/>
<path d="M866.254 1369.63C866.747 1369.39 874.521 1381.89 874.812 1388.8C875.268 1399.61 849.696 1446.44 837.662 1448.96C833.857 1449.75 831.084 1429.68 831.084 1429.68C821.03 1445.55 756.528 1480.4 747.842 1482.23C742.408 1483.37 739.41 1468.84 740.92 1461.14C740.92 1461.14 661.685 1482.48 657.948 1476.52C653.934 1470.19 712.695 1421.63 712.695 1421.63C702.192 1416.83 694.755 1408.97 697.102 1405.44C700.757 1399.86 763.48 1374.34 789.792 1370.05C789.792 1370.05 768.772 1357.52 771.904 1355.29C785.359 1345.71 832.242 1349.8 847.357 1354.05C854.839 1356.17 866.254 1369.63 866.254 1369.63Z" fill="#BDD9A3"/>
<path d="M667.239 1471.49C924.828 1335.61 947.253 1348.41 936.392 1336.85C874.94 1360.19 736.54 1430.54 667.239 1471.49Z" fill="#BDD9A3"/>
<path d="M970.695 1654.38C972.294 1652.05 973.685 1649.76 975.023 1647.39C976.361 1645.02 977.661 1642.65 978.88 1640.22C981.324 1635.37 983.559 1630.43 985.607 1625.4C989.693 1615.33 993.097 1604.99 995.796 1594.45C1001.19 1573.27 1004.09 1551.52 1004.44 1529.66C1004.56 1524.18 1004.49 1518.71 1004.28 1513.2C1004.07 1507.7 1003.76 1502.26 1003.26 1496.8C1002.33 1485.87 1000.83 1475 998.778 1464.23C996.737 1453.47 994.218 1442.74 991.303 1432.23C988.388 1421.72 985.226 1411.39 981.75 1401.07C978.274 1390.76 974.425 1380.55 970.298 1370.4C968.205 1365.35 966.045 1360.33 963.773 1355.35C961.5 1350.36 959.183 1345.4 956.709 1340.5C946.879 1320.86 935.555 1301.8 922.04 1283.97C915.238 1274.96 907.841 1266.41 899.899 1258.38C891.763 1250.12 882.846 1242.67 873.273 1236.14C870.836 1234.48 868.302 1232.94 865.798 1231.34C864.542 1230.52 863.234 1229.79 861.971 1228.97L858.076 1226.64C852.757 1223.42 847.173 1220.67 841.385 1218.41C835.369 1216.14 829.012 1214.91 822.585 1214.77C820.963 1214.77 819.341 1214.77 817.726 1214.91C816.911 1214.97 816.104 1215.06 815.297 1215.13C814.469 1215.2 813.657 1215.4 812.89 1215.72C811.067 1216.46 809.479 1217.69 808.293 1219.26C806.506 1221.58 805.232 1224.26 804.555 1227.11L805.594 1236.13C806.013 1237.03 806.401 1237.81 806.775 1238.47C806.962 1238.81 807.149 1239.22 807.328 1239.49L807.859 1240.39C808.554 1241.56 809.19 1242.44 809.803 1243.3C810.331 1244.01 810.919 1244.69 811.559 1245.31C812.051 1245.8 812.604 1246.22 813.204 1246.56C813.702 1246.84 814.239 1247.04 814.796 1247.15C815.319 1247.26 815.842 1247.39 816.366 1247.49C817.412 1247.71 818.451 1247.96 819.49 1248.16C823.624 1249.09 827.758 1249.8 832.071 1250.57C836.534 1251.3 840.937 1252.37 845.242 1253.75C849.713 1255.29 853.98 1257.36 857.949 1259.93C866.216 1265.14 873.945 1271.15 881.024 1277.88C888.322 1284.81 895.124 1292.25 901.379 1300.14C914.086 1316.04 925.06 1333.58 934.837 1351.87C939.726 1361.01 944.323 1370.34 948.628 1379.85C950.811 1384.59 952.897 1389.37 954.945 1394.18C956.993 1398.99 958.936 1403.85 960.857 1408.72C964.737 1418.45 968.28 1428.34 971.681 1438.28C975.082 1448.22 977.975 1458.11 980.479 1468.2C981.713 1473.25 982.864 1478.32 983.85 1483.42C984.837 1488.52 985.794 1493.64 986.571 1498.78C987.349 1503.93 987.999 1509.08 988.522 1514.27C989.046 1519.45 989.427 1524.63 989.696 1529.84C990.252 1540.26 990.232 1550.7 989.636 1561.12C989.063 1571.57 987.895 1581.99 986.138 1592.3C984.387 1602.67 981.983 1612.91 978.939 1622.97C977.444 1628 975.74 1632.98 973.827 1637.9C972.87 1640.35 971.89 1642.79 970.837 1645.2C969.783 1647.6 968.654 1650.02 967.458 1652.23L970.695 1654.38Z" fill="url(#paint2_linear)"/>
<defs>
<linearGradient id="paint0_linear" x1="1101.67" y1="371.235" x2="881.811" y2="-11.0704" gradientUnits="userSpaceOnUse">
<stop stop-color="#B3D599" stop-opacity="0"/>
<stop offset="0.53" stop-color="#B3D599" stop-opacity="0.5"/>
<stop offset="1" stop-color="#6EAF3C"/>
</linearGradient>
<linearGradient id="paint1_linear" x1="273316" y1="216214" x2="361469" y2="357654" gradientUnits="userSpaceOnUse">
<stop stop-color="#B3D599" stop-opacity="0"/>
<stop offset="0.53" stop-color="#B3D599" stop-opacity="0.5"/>
<stop offset="1" stop-color="#6EAF3C"/>
</linearGradient>
<linearGradient id="paint2_linear" x1="242473" y1="973511" x2="242473" y2="715167" gradientUnits="userSpaceOnUse">
<stop stop-color="#B3D599" stop-opacity="0"/>
<stop offset="0.53" stop-color="#B3D599" stop-opacity="0.5"/>
<stop offset="1" stop-color="#6EAF3C"/>
</linearGradient>
</defs>
</svg>
