<svg width="220" height="229" viewBox="0 0 220 229" fill="none" xmlns="http://www.w3.org/2000/svg">
<path d="M208.099 114.642C208.099 168.842 164.199 212.742 109.999 212.742C55.7992 212.742 11.8992 168.842 11.8992 114.642C11.8992 60.4416 55.7992 16.5416 109.999 16.5416C164.199 16.5416 208.099 60.4416 208.099 114.642ZM90.0992 9.64159C83.6992 16.8416 73.8992 20.0416 64.3992 17.9416C48.7992 14.4416 33.6992 25.4416 32.1992 41.3416C31.2992 50.9416 25.1992 59.3416 16.2992 63.1416C1.59922 69.6416 -4.10078 87.3416 3.99922 101.142C8.89922 109.442 8.89922 119.842 3.99922 128.142C-4.10078 141.942 1.69922 159.642 16.2992 166.042C25.1992 169.942 31.1992 178.242 32.1992 187.842C33.6992 203.742 48.7992 214.742 64.3992 211.242C73.7992 209.142 83.6992 212.342 90.0992 219.542C100.699 231.542 119.399 231.542 129.999 219.542C136.399 212.342 146.199 209.142 155.699 211.242C171.299 214.742 186.399 203.742 187.899 187.842C188.799 178.242 194.899 169.842 203.799 166.042C218.499 159.642 224.199 141.942 216.099 128.142C211.199 119.842 211.199 109.442 216.099 101.142C224.199 87.3416 218.399 69.6416 203.799 63.2416C194.899 59.3416 188.899 51.0416 187.899 41.4416C186.399 25.5416 171.299 14.5416 155.699 18.0416C146.299 20.1416 136.399 16.9416 129.999 9.74159C119.299 -2.35841 100.699 -2.35841 90.0992 9.64159Z" fill="#94ECFF"/>
</svg>
